HIERARCHY
ROOT hip
{
	OFFSET 0.000000 0.000000 0.000000
	CHANNELS 6 Xposition Yposition Zposition Xrotation Zrotation Yrotation 
	JOINT abdomen
	{
		OFFSET 0.000000 3.422050 0.000000
		CHANNELS 3 Xrotation Zrotation Yrotation 
		JOINT chest
		{
			OFFSET 0.000000 8.486693 -0.684411
			CHANNELS 3 Xrotation Zrotation Yrotation 
			JOINT neck
			{
				OFFSET 0.000000 10.266162 -0.273764
				CHANNELS 3 Xrotation Zrotation Yrotation 
				JOINT head
				{
					OFFSET 0.000000 3.148285 0.000000
					CHANNELS 3 Xrotation Zrotation Yrotation 
					End Site
					{
						OFFSET 0.000000 3.148289 0.000000
					}
				}
			}
			JOINT lCollar
			{
				OFFSET 3.422053 6.707223 -0.821293
				CHANNELS 3 Yrotation Zrotation Xrotation 
				JOINT lShldr
				{
					OFFSET 3.285171 0.000000 0.000000
					CHANNELS 3 Zrotation Yrotation Xrotation 
					JOINT lForeArm
					{
						OFFSET 10.129278 0.000000 0.000000
						CHANNELS 3 Yrotation Zrotation Xrotation 
						JOINT lHand
						{
							OFFSET 8.486692 0.000000 0.000000
							CHANNELS 3 Zrotation Yrotation Xrotation 
							End Site
							{
								OFFSET 4.106464 0.000000 0.000000
							}
						}
					}
				}
			}
			JOINT rCollar
			{
				OFFSET -3.558935 6.707223 -0.821293
				CHANNELS 3 Yrotation Zrotation Xrotation 
				JOINT rShldr
				{
					OFFSET -3.148289 0.000000 0.000000
					CHANNELS 3 Zrotation Yrotation Xrotation 
					JOINT rForeArm
					{
						OFFSET -10.266159 0.000000 0.000000
						CHANNELS 3 Yrotation Zrotation Xrotation 
						JOINT rHand
						{
							OFFSET -8.349810 0.000000 0.000000
							CHANNELS 3 Zrotation Yrotation Xrotation 
							End Site
							{
								OFFSET -4.106464 0.000000 0.000000
							}
						}
					}
				}
			}
		}
	}
	JOINT lThigh
	{
		OFFSET 5.338403 -1.642589 1.368821
		CHANNELS 3 Xrotation Zrotation Yrotation 
		JOINT lShin
		{
			OFFSET -2.053232 -20.121670 0.000000
			CHANNELS 3 Xrotation Zrotation Yrotation 
			JOINT lFoot
			{
				OFFSET 0.000000 -19.300380 -1.231939
				CHANNELS 3 Xrotation Yrotation Zrotation 
				End Site
				{
					OFFSET 0.000000 -2.463878 4.653993
				}
			}
		}
	}
	JOINT rThigh
	{
		OFFSET -5.338403 -1.642589 1.368821
		CHANNELS 3 Xrotation Zrotation Yrotation 
		JOINT rShin
		{
			OFFSET 2.053232 -20.121670 0.000000
			CHANNELS 3 Xrotation Zrotation Yrotation 
			JOINT rFoot
			{
				OFFSET 0.000000 -19.300380 -1.231939
				CHANNELS 3 Xrotation Yrotation Zrotation 
				End Site
				{
					OFFSET 0.000000 -2.463878 4.653993
				}
			}
		}
	}
}
MOTION
Frames: 11
Frame Time: 0.033264
0.000000 43.528500 -0.691759 23.055527 0.000000 0.000000 0.234743 -0.539199 -0.118630 4.413255 -0.669098 -0.800260 6.607953 0.000000 0.000000 8.924210 0.000000 0.000000 5.076090 7.047805 14.739878 -77.923904 1.400120 -1.950855 19.509878 -26.221819 6.224113 0.738833 -28.310707 7.008005 -8.781649 2.722710 16.788403 74.382523 -4.364126 -1.887954 -9.237608 12.988576 3.014519 5.985301 24.679138 6.697873 -21.108582 2.912287 11.162470 82.664635 6.951690 -1.968042 72.727440 20.018276 -17.639984 -21.247017 -2.864627 -11.184340 92.928444 -6.696894 0.504287 35.472038 -5.326343 12.481556 
0.000000 43.528500 -0.659619 22.724558 0.000000 0.000000 -0.167362 -0.539166 -0.118576 6.163948 -0.669078 -0.800346 6.607953 0.000000 0.000000 9.349902 0.000000 0.000000 5.026044 6.839970 13.914132 -77.923729 1.400190 -1.950896 19.323139 -26.052923 6.153914 0.704183 -28.335596 6.789777 -8.648703 3.176312 15.969843 74.211586 -4.330851 -1.866539 -9.147166 12.860185 2.998856 5.991496 24.739302 6.475781 -20.657450 2.892763 11.133193 82.638962 6.948654 -1.971125 72.727287 20.018389 -17.639832 -20.798141 -2.839354 -11.150382 92.951759 -6.698970 0.501533 35.471939 -5.326376 12.481364 
0.000000 43.528500 -0.627479 22.393589 0.000000 0.000000 -0.569448 -0.539133 -0.118522 7.913002 -0.669056 -0.800431 6.607953 0.000000 0.000000 9.775573 0.000000 0.000000 4.973022 6.632919 13.088742 -77.923546 1.400260 -1.950936 19.136889 -25.883812 6.084423 0.669635 -28.360598 6.571519 -8.509248 3.627846 15.150064 74.040642 -4.297512 -1.845223 -9.056805 12.731770 2.983408 5.997437 24.799482 6.253591 -20.206347 2.873472 11.103765 82.613281 6.945617 -1.974208 72.727158 20.018499 -17.639681 -20.349293 -2.814349 -11.116229 92.975037 -6.701043 0.498781 35.471832 -5.326409 12.481172 
0.000000 43.528500 -0.595339 22.062649 0.000000 0.000000 -0.971503 -0.539099 -0.118469 9.659615 -0.669031 -0.800515 6.607953 0.000000 0.000000 10.201207 0.000000 0.000000 4.917045 6.426717 12.263778 -77.923370 1.400330 -1.950977 18.951145 -25.714508 6.015646 0.635187 -28.385715 6.353232 -8.363322 4.077163 14.329088 73.869751 -4.264111 -1.824009 -8.966528 12.603333 2.968176 6.003126 24.859690 6.031308 -19.755285 2.854414 11.074191 82.587624 6.942579 -1.977288 72.727028 20.018614 -17.639530 -19.900475 -2.789615 -11.081885 92.998344 -6.703117 0.496026 35.471725 -5.326443 12.480980 
0.000000 43.528500 -0.563199 21.731724 0.000000 0.000000 -1.373519 -0.539065 -0.118416 11.402976 -0.669003 -0.800598 6.607953 0.000000 0.000000 10.626791 0.000000 0.000000 4.858138 6.221431 11.439315 -77.923187 1.400400 -1.951018 18.765900 -25.545015 5.947578 0.600842 -28.410950 6.134918 -8.210951 4.524103 13.506922 73.698868 -4.230648 -1.802896 -8.876333 12.474876 2.953160 6.008559 24.919918 5.808930 -19.304277 2.835593 11.044473 82.561935 6.939538 -1.980368 72.726898 20.018726 -17.639380 -19.451710 -2.765152 -11.047353 93.021629 -6.705188 0.493271 35.471622 -5.326476 12.480788 
0.000000 43.528500 -0.531060 21.400831 0.000000 0.000000 -1.775484 -0.539031 -0.118363 13.142292 -0.668974 -0.800680 6.607953 0.000000 0.000000 11.052321 0.000000 0.000000 4.796324 6.017123 10.615417 -77.923019 1.400470 -1.951059 18.581146 -25.375330 5.880217 0.566599 -28.436304 5.916582 -8.052167 4.968518 12.683592 73.528008 -4.197121 -1.781884 -8.786217 12.346397 2.938357 6.013735 24.980150 5.586457 -18.853336 2.817008 11.014611 82.536263 6.936496 -1.983447 72.726768 20.018839 -17.639229 -19.003012 -2.740965 -11.012638 93.044937 -6.707257 0.490515 35.471516 -5.326509 12.480597 
0.000000 43.528500 -0.498919 21.069967 0.000000 0.000000 -2.177392 -0.538996 -0.118310 14.876785 -0.668942 -0.800761 6.607953 0.000000 0.000000 11.477777 0.000000 0.000000 4.731630 5.813854 9.792150 -77.922844 1.400540 -1.951099 18.396873 -25.205460 5.813557 0.532460 -28.461761 5.698217 -7.887009 5.410256 11.859110 73.357178 -4.163534 -1.760975 -8.696180 12.217897 2.923769 6.018656 25.040403 5.363893 -18.402479 2.798662 10.984612 82.510605 6.933456 -1.986524 72.726631 20.018950 -17.639078 -18.554386 -2.717054 -10.977738 93.068237 -6.709327 0.487758 35.471409 -5.326542 12.480404 
0.000000 43.528500 -0.466780 20.739147 0.000000 0.000000 -2.579229 -0.538961 -0.118258 16.605671 -0.668907 -0.800840 6.607953 0.000000 0.000000 11.903154 0.000000 0.000000 4.664086 5.611691 8.969594 -77.922661 1.400609 -1.951140 18.213087 -25.035398 5.747595 0.498426 -28.487337 5.479833 -7.715516 5.849166 11.033501 73.186356 -4.129886 -1.740167 -8.606225 12.089382 2.909396 6.023322 25.100670 5.141238 -17.951719 2.780555 10.954472 82.484924 6.930410 -1.989599 72.726501 20.019062 -17.638927 -18.105862 -2.693423 -10.942665 93.091545 -6.711396 0.485000 35.471310 -5.326575 12.480212 
0.000000 43.528500 -0.434640 20.408369 0.000000 0.000000 -2.980989 -0.538926 -0.118205 18.328205 -0.668870 -0.800918 6.607953 0.000000 0.000000 12.328434 0.000000 0.000000 4.593720 5.410691 8.147813 -77.922485 1.400679 -1.951180 18.029789 -24.865166 5.682333 0.464497 -28.513021 5.261426 -7.537736 6.285107 10.206793 73.015587 -4.096179 -1.719462 -8.516345 11.960846 2.895236 6.027730 25.160950 4.918494 -17.501070 2.762692 10.924204 82.459259 6.927365 -1.992673 72.726372 20.019175 -17.638777 -17.657436 -2.670071 -10.907413 93.114830 -6.713463 0.482242 35.471207 -5.326609 12.480021 
0.000000 43.528500 -0.402500 20.077642 0.000000 0.000000 -3.382657 -0.538890 -0.118153 20.043642 -0.668831 -0.800995 6.607953 0.000000 0.000000 12.753612 0.000000 0.000000 4.520565 5.210917 7.326880 -77.922310 1.400749 -1.951221 17.846972 -24.694765 5.617766 0.430674 -28.538824 5.043002 -7.353712 6.717927 9.379011 72.844818 -4.062409 -1.698859 -8.426547 11.832295 2.881289 6.031880 25.221239 4.695660 -17.050541 2.745071 10.893800 82.433578 6.924319 -1.995745 72.726242 20.019289 -17.638626 -17.209135 -2.647003 -10.871993 93.138138 -6.715528 0.479482 35.471104 -5.326642 12.479829 
0.000000 43.528500 -0.370360 19.746965 0.000000 0.000000 -3.784228 -0.538854 -0.118102 21.751266 -0.668790 -0.801070 6.607953 0.000000 0.000000 13.178667 0.000000 0.000000 4.444654 5.012431 6.506865 -77.922134 1.400819 -1.951262 17.664621 -24.524179 5.553887 0.396957 -28.564730 4.824560 -7.163494 7.147483 8.550179 72.674088 -4.028581 -1.678359 -8.336824 11.703726 2.867554 6.035772 25.281532 4.472738 -16.600153 2.727695 10.863271 82.407906 6.921270 -1.998816 72.726112 20.019402 -17.638475 -16.760963 -2.624219 -10.836403 93.161430 -6.717593 0.476721 35.471001 -5.326675 12.479637 
